<svg width="342" height="342" viewBox="0 0 342 342" fill="none" xmlns="http://www.w3.org/2000/svg">
<path d="M297.43 134.64C263.89 177.46 221.88 178.73 221.88 178.73C162.29 188.28 140.15 158.34 156.01 139.59C167.26 129.78 189.26 134.86 200.28 170.01C221.9 173.53 256.26 161 272.04 148.54C273.72 141.88 272.04 91.8699 230.15 63.65C182.64 31.64 116.61 43.12 83.3598 73.3C53.5698 100.34 25.6998 162.84 88.2098 210.47C134.37 245.64 203.27 219.37 210.57 215.65C211.56 215.14 212.27 244.81 195.89 251.39C172.02 260.98 160.11 239.22 160.11 239.22C160.11 239.22 133.23 248.36 117.76 253.35C134.02 294.25 183.3 299.58 200.44 295.32C252.37 282.42 269.97 242.08 271.19 193.16C286.63 179.42 295.7 155.77 302.18 137.2C303.2 134.27 299.35 132.2 297.43 134.64Z" fill="#214ADE"/>
</svg>
